<?xml version="1.0" encoding="UTF-8" standalone="no"?>
<!-- Created with Inkscape (http://www.inkscape.org/) -->

<svg
   version="1.1"
   id="svg1"
   width="250.73029"
   height="236.41418"
   viewBox="0 0 250.73029 236.41418"
   xmlns="http://www.w3.org/2000/svg"
   xmlns:svg="http://www.w3.org/2000/svg">
  <defs
     id="defs1">
    <clipPath
       clipPathUnits="userSpaceOnUse"
       id="clipPath64-4">
      <path
         d="M 0,841.89 H 595.276 V 0 H 0 Z"
         transform="translate(-352.10911,-629.84752)"
         id="path64-8" />
    </clipPath>
  </defs>
  <g
     id="layer-MC0"
     transform="translate(-255.60238,-135.33307)">
    <g
       id="g457">
      <path
         id="path63"
         d="m 0,0 c 1.135,-0.235 7.882,-1.593 7.524,-3.055 -0.437,-1.781 -13.731,-4.328 -16.01,-4.741 -35.549,-6.446 -86.944,-6.476 -122.531,-0.434 -3.884,0.66 -14.525,2.493 -17.26,4.758 -0.831,0.688 0.439,1.248 1.021,1.497 6.005,2.571 24.055,4.532 31.059,4.926 6.05,0.341 3.465,-1.769 6.647,-5.38 3.136,-3.559 12.598,-4.524 17.367,-5.074 13.569,-1.564 31.299,-1.482 44.875,-10e-4 4.74,0.517 11.562,1.07 15.235,4.241 2.052,1.772 3.258,6.058 5.493,6.363 C -22.061,3.716 -5.161,1.067 0,0 M -2.564,52.215 C 8.134,59.832 21.775,52.199 13.8,38.933 11.285,34.749 3.61,30.23 -1.155,29.33 l -12.254,-2.611 c 2.337,7.566 7.714,17.711 10.845,25.496 M 28.487,51.774 C 25.334,65.23 12.095,68.617 -0.094,65.742 c 0.124,1.026 1.466,6.395 -0.911,9.465 -2.759,3.564 -15.202,4.596 -19.744,5.115 -12.071,1.376 -23.763,1.645 -35.629,1.901 l -3.207,0.063 c 0.021,-0.03 0.045,-0.067 0.067,-0.098 -0.787,1.093 -1.547,2.2 -2,3.383 -1.431,3.735 -1.315,6.991 1.068,9.62 0.079,-0.009 0.157,-0.011 0.236,-0.021 6.524,-0.8 12.556,-4.571 18.973,-6.024 18.955,-4.292 34.963,3.126 53.058,5.942 4.869,0.757 10.81,0.31 15.161,1.226 0.747,0.157 1.562,0.365 2.105,0.944 -0.566,0.782 -1.339,0.902 -2.206,1.121 -3.235,0.815 -7.017,0.947 -10.344,1.6 -20.634,4.047 -34.873,13.557 -46.448,31.045 -6.229,9.411 -10.37,24.694 -25.151,18.17 -5.662,-2.499 -7.827,-6.929 -12.223,-10.554 -4.523,-3.729 -5.751,0.48 -9.873,0.711 -0.686,0.039 -1.271,-0.144 -1.917,-0.309 -3.76,-0.957 -8.608,-7.875 -11.402,-10.818 -0.67,-0.706 -3.187,-3.411 -3.824,-3.674 -1.776,-0.733 -6.21,1.728 -8.679,1.73 -6.59,0.006 -14.647,-8.836 -19.883,-12.61 -9.384,-6.764 -20.711,-11.746 -31.858,-14.805 -0.587,-0.161 -3.836,-0.747 -3.948,-0.916 -0.838,-1.265 3.327,-1.846 4.03,-1.938 12.613,-1.656 29.087,6.539 39.386,13.382 3.181,2.113 10.255,8.284 13.733,8.494 3.909,0.235 1.387,-5.037 0.061,-6.735 -0.88,-1.126 -5.13,-4.698 -5.275,-5.558 -0.106,-0.588 0.276,-0.461 0.698,-0.422 5.958,0.547 18.186,13.43 22.225,18.052 0.919,1.052 4.242,5.664 5.03,6.078 2.086,1.099 3.048,-0.786 4.681,-1.636 3.676,-1.914 6.135,-1.127 9.179,1.389 4.178,3.452 9.861,13.362 15.548,13.361 0.792,0 1.576,-0.16 2.278,-0.523 2.536,-1.311 6.026,-8.484 7.745,-11.142 5.942,-9.187 15.658,-20.491 25.204,-25.902 l 13.239,-6.06 c -11.511,-1.979 -23.928,-5.008 -35.645,-3.292 -2.741,0.401 -9.096,1.943 -10.175,4.823 -1.305,3.485 1.903,5.765 4.931,6.443 4.408,0.989 8.552,-0.191 12.68,-1.607 1.746,4.794 -4.158,8.025 -8.118,8.824 -20.375,4.108 -34.664,-14.88 -53.321,-18.175 -3.32,-0.586 -6.761,-0.546 -10.048,-1.206 l 0.002,-0.792 c 4.448,-1.624 8.979,-2.507 13.743,-2.255 5.158,0.274 10.151,1.786 15.193,2.82 -0.336,-0.653 -0.71,-1.278 -1.135,-1.859 0.065,0.018 0.131,0.032 0.196,0.05 -2.547,-7.721 6.448,-12.085 6.945,-17.399 0.186,-1.991 -0.731,-4.243 -3.996,-6.732 -0.382,-0.289 -0.642,-0.504 -1.298,-0.95 0.264,-0.146 0.527,-0.029 0.95,0.041 1.041,0.17 10.503,2.629 12.425,5.638 0.428,0.684 0.682,1.32 0.821,1.945 0.062,0.27 0.094,0.533 0.109,0.793 26.529,-0.551 46.339,-2.717 46.339,-5.307 0,-1.724 -8.781,-3.259 -22.469,-4.257 -5.212,-0.472 -10.6,-0.707 -15.769,-0.825 -6.63,-0.233 -13.824,-0.362 -21.351,-0.362 -4.263,0 -8.418,0.042 -12.428,0.12 -8.045,0.064 -16.133,0.322 -24.135,1.027 -14.006,0.996 -23.026,2.55 -23.026,4.297 0,2.891 24.623,5.152 55.778,5.329 1.392,1.55 -2.443,6.281 -3.964,6.419 -2.41,0.219 -7.885,-0.133 -10.689,-0.188 -12.614,-0.251 -31.279,-1.066 -40.132,-2.694 -6.646,-1.223 -13.806,-2.006 -13.893,-9.688 -0.04,-3.513 0.837,-9.417 1.418,-13.014 2.754,-17.052 10.703,-34.592 22.323,-47.322 -8.26,-0.197 -16.912,-1.358 -24.985,-3.175 -7.503,-1.689 -22.189,-4.926 -11.432,-14.405 21.738,-19.157 82.084,-19.65 109.874,-17.562 17.724,1.332 40.714,4.978 55.643,15.065 14.741,9.96 4.556,14.158 -7.155,16.902 -8.298,1.944 -16.919,2.83 -25.406,3.381 l 4.008,6.759 c 23.926,2.843 52.045,12.092 46.59,35.375"
         style="fill:#231f20;fill-opacity:1;fill-rule:nonzero;stroke:none"
         transform="matrix(1.3333333,0,0,-1.3333333,467.43466,336.35562)"
         clip-path="url(#clipPath64-4)" />
    </g>
  </g>
</svg>
