<?xml version="1.0" encoding="UTF-8" standalone="no"?>
<!-- Created with Inkscape (http://www.inkscape.org/) -->

<svg
   version="1.1"
   id="svg1"
   width="366.62946"
   height="189.14911"
   viewBox="0 0 366.62945 189.14911"
   xmlns="http://www.w3.org/2000/svg"
   xmlns:svg="http://www.w3.org/2000/svg">
  <defs
     id="defs1">
    <clipPath
       clipPathUnits="userSpaceOnUse"
       id="clipPath2">
      <path
         d="M 0,841.89 H 595.276 V 0 H 0 Z"
         transform="translate(-193.5337,-227.31661)"
         id="path2" />
    </clipPath>
    <clipPath
       clipPathUnits="userSpaceOnUse"
       id="clipPath4">
      <path
         d="M 0,841.89 H 595.276 V 0 H 0 Z"
         transform="translate(-199.8765,-199.3264)"
         id="path4" />
    </clipPath>
    <clipPath
       clipPathUnits="userSpaceOnUse"
       id="clipPath6">
      <path
         d="M 0,841.89 H 595.276 V 0 H 0 Z"
         transform="translate(-236.10111,-217.8625)"
         id="path6" />
    </clipPath>
    <clipPath
       clipPathUnits="userSpaceOnUse"
       id="clipPath8">
      <path
         d="M 0,841.89 H 595.276 V 0 H 0 Z"
         transform="translate(-274.20651,-217.8625)"
         id="path8" />
    </clipPath>
    <clipPath
       clipPathUnits="userSpaceOnUse"
       id="clipPath10">
      <path
         d="M 0,841.89 H 595.276 V 0 H 0 Z"
         transform="translate(-329.64601,-208.96311)"
         id="path10" />
    </clipPath>
    <clipPath
       clipPathUnits="userSpaceOnUse"
       id="clipPath12">
      <path
         d="M 0,841.89 H 595.276 V 0 H 0 Z"
         transform="translate(-373.57571,-235.06171)"
         id="path12" />
    </clipPath>
    <clipPath
       clipPathUnits="userSpaceOnUse"
       id="clipPath14">
      <path
         d="M 0,841.89 H 595.276 V 0 H 0 Z"
         transform="translate(-377.52591,-199.3264)"
         id="path14" />
    </clipPath>
    <clipPath
       clipPathUnits="userSpaceOnUse"
       id="clipPath16">
      <path
         d="M 0,841.89 H 595.276 V 0 H 0 Z"
         transform="translate(-414.22611,-228.16621)"
         id="path16" />
    </clipPath>
    <clipPath
       clipPathUnits="userSpaceOnUse"
       id="clipPath18">
      <path
         d="M 0,841.89 H 595.276 V 0 H 0 Z"
         transform="translate(-245.4568,-257.46301)"
         id="path18" />
    </clipPath>
  </defs>
  <g
     id="layer-MC0"
     transform="translate(-214.06528,-668.39928)">
    <path
       id="path1"
       d="m 0,0 c -0.598,2.384 -1.67,4.486 -2.271,5.379 -1.003,1.34 -1.507,1.783 -4.848,1.783 h -4.443 v -27.603 c 0,-4.75 0.54,-5.201 5.823,-5.586 v -1.963 h -18.423 v 1.963 c 5.092,0.385 5.594,0.815 5.594,5.586 V 7.162 h -4.147 c -3.227,0 -4.156,-0.461 -5.217,-1.975 -0.771,-1.122 -1.462,-2.966 -2.215,-5.225 h -2.042 c 0.385,3.99 0.771,8.21 0.908,11.156 h 1.597 c 0.871,-1.354 1.546,-1.409 3.246,-1.409 H -3.32 c 1.586,0 2.276,0.307 3.221,1.409 H 1.482 C 1.52,8.581 1.752,3.802 2.042,0.174 Z"
       style="fill:#16507c;fill-opacity:1;fill-rule:nonzero;stroke:none"
       transform="matrix(1.3333333,0,0,-1.3333333,258.04493,819.4312)"
       clip-path="url(#clipPath2)" />
    <path
       id="path3"
       d="M 0,0 V 1.963 C 4.529,2.41 5.031,2.717 5.031,7.609 v 22.422 c 0,4.913 -0.54,5.296 -5.031,5.704 v 1.964 H 17.089 V 35.735 C 12.576,35.289 12.037,34.944 12.037,30.031 V 7.609 c 0,-4.875 0.502,-5.162 5.052,-5.646 V 0 Z"
       style="fill:#16507c;fill-opacity:1;fill-rule:nonzero;stroke:none"
       transform="matrix(1.3333333,0,0,-1.3333333,266.502,856.75147)"
       clip-path="url(#clipPath4)" />
    <path
       id="path5"
       d="m 0,0 c 2.676,0 4.59,0.427 5.927,1.569 2.036,1.644 2.888,3.889 2.888,6.908 0,6.168 -3.741,8.392 -7.415,8.392 -1.606,0 -2.441,-0.232 -2.81,-0.58 -0.446,-0.368 -0.582,-1.023 -0.582,-2.306 L -1.992,0 Z m 21.854,-18.925 c -0.491,0 -1.167,0.021 -1.882,0.078 -6.27,0.328 -8.456,1.732 -10.481,4.574 -2.259,3.109 -4.083,6.687 -6.014,9.984 -0.972,1.668 -1.763,2.016 -4.005,2.016 l -1.464,0.038 v -8.692 c 0,-4.779 0.599,-5.144 5.051,-5.646 v -1.963 h -16.955 v 1.963 c 4.549,0.484 5.031,0.867 5.031,5.646 v 22.538 c 0,4.704 -0.601,5.18 -5.031,5.588 v 1.964 H 2.212 c 4.838,0 7.755,-0.559 10.072,-2.123 2.34,-1.546 3.905,-4.118 3.905,-7.693 0,-5.102 -3.339,-7.969 -7.33,-9.599 0.931,-1.761 3.274,-5.571 5.014,-8.219 2.07,-3.149 3.285,-4.675 4.469,-6.011 1.415,-1.569 2.297,-2.094 3.856,-2.592 z"
       style="fill:#16507c;fill-opacity:1;fill-rule:nonzero;stroke:none"
       transform="matrix(1.3333333,0,0,-1.3333333,314.80147,832.03667)"
       clip-path="url(#clipPath6)" />
    <path
       id="path7"
       d="m 0,0 c 2.676,0 4.59,0.427 5.927,1.569 2.036,1.644 2.888,3.889 2.888,6.908 0,6.168 -3.741,8.392 -7.415,8.392 -1.606,0 -2.441,-0.232 -2.81,-0.58 -0.446,-0.368 -0.582,-1.023 -0.582,-2.306 L -1.992,0 Z m 21.854,-18.925 c -0.491,0 -1.167,0.021 -1.882,0.078 -6.27,0.328 -8.456,1.732 -10.481,4.574 -2.259,3.109 -4.083,6.687 -6.014,9.984 -0.972,1.668 -1.763,2.016 -4.005,2.016 l -1.464,0.038 v -8.692 c 0,-4.779 0.599,-5.144 5.051,-5.646 v -1.963 h -16.955 v 1.963 c 4.549,0.484 5.031,0.867 5.031,5.646 v 22.538 c 0,4.704 -0.601,5.18 -5.031,5.588 v 1.964 H 2.212 c 4.838,0 7.755,-0.559 10.072,-2.123 2.34,-1.546 3.905,-4.118 3.905,-7.693 0,-5.102 -3.339,-7.969 -7.33,-9.599 0.931,-1.761 3.274,-5.571 5.014,-8.219 2.07,-3.149 3.285,-4.675 4.469,-6.011 1.415,-1.569 2.297,-2.094 3.856,-2.592 z"
       style="fill:#16507c;fill-opacity:1;fill-rule:nonzero;stroke:none"
       transform="matrix(1.3333333,0,0,-1.3333333,365.60867,832.03667)"
       clip-path="url(#clipPath8)" />
    <path
       id="path9"
       d="m 0,0 c -0.31,-1.546 -1.913,-7.972 -2.456,-9.637 h -29.432 v 1.926 c 5.32,0.482 5.688,0.853 5.688,5.684 v 22.419 c 0,5.011 -0.676,5.338 -4.762,5.707 v 1.963 h 18.464 c 5.866,0 7.977,0.058 8.749,0.116 0.058,-1.186 0.327,-5.8 0.56,-9.213 l -2.08,-0.29 c -0.522,1.972 -1.366,3.944 -2.23,5.049 -1.003,1.423 -1.96,1.792 -5.101,1.792 h -4.379 c -2.062,0 -2.253,-0.136 -2.253,-2.007 V 11.144 h 5.948 c 3.634,0 4.112,0.87 4.921,4.927 h 2.099 V 3.482 H -8.363 C -9.23,7.733 -9.694,8.39 -13.342,8.39 h -5.89 V -2.135 c 0,-4.022 0.522,-4.935 3.875,-4.993 h 4.564 c 3.35,0 4.118,0.446 5.394,1.992 1.328,1.52 2.508,3.746 3.395,5.637 z"
       style="fill:#16507c;fill-opacity:1;fill-rule:nonzero;stroke:none"
       transform="matrix(1.3333333,0,0,-1.3333333,439.528,843.90253)"
       clip-path="url(#clipPath10)" />
    <path
       id="path11"
       d="m 0,0 c -3.599,-0.443 -4.741,-1.137 -4.915,-3.767 -0.134,-2.12 -0.287,-4.254 -0.287,-9.421 v -23.145 h -2.883 l -24.409,29.466 v -13.594 c 0,-5.107 0.137,-7.491 0.29,-9.173 0.191,-2.694 1.491,-3.865 5.742,-4.138 v -1.963 h -14.282 v 1.963 c 3.407,0.29 4.837,1.16 5.144,3.926 0.212,2.007 0.329,4.278 0.329,9.405 V -6.33 c 0,1.812 -0.117,2.967 -1.199,4.393 -1.064,1.45 -2.395,1.685 -4.972,1.937 v 1.964 h 10.395 l 22.971,-26.911 v 11.759 c 0,5.167 -0.078,7.284 -0.252,9.288 -0.175,2.535 -1.244,3.61 -5.997,3.9 V 1.964 H 0 Z"
       style="fill:#16507c;fill-opacity:1;fill-rule:nonzero;stroke:none"
       transform="matrix(1.3333333,0,0,-1.3333333,498.10093,809.1044)"
       clip-path="url(#clipPath12)" />
    <path
       id="path13"
       d="M 0,0 V 1.963 C 4.529,2.41 5.031,2.717 5.031,7.609 v 22.422 c 0,4.913 -0.54,5.296 -5.031,5.704 v 1.964 H 17.089 V 35.735 C 12.576,35.289 12.037,34.944 12.037,30.031 V 7.609 c 0,-4.875 0.502,-5.162 5.052,-5.646 V 0 Z"
       style="fill:#16507c;fill-opacity:1;fill-rule:nonzero;stroke:none"
       transform="matrix(1.3333333,0,0,-1.3333333,503.36787,856.75147)"
       clip-path="url(#clipPath14)" />
    <path
       id="path15"
       d="m 0,0 c -1.742,-4.46 -3.488,-8.833 -5.04,-13.188 h 9.79 z m 5.348,-28.84 v 1.963 c 3.694,0.502 3.857,1.12 3.045,3.512 -0.641,1.923 -1.651,4.635 -2.642,7.421 H -5.985 c -0.74,-2.082 -1.572,-4.306 -2.233,-6.307 -1.238,-3.694 -0.05,-4.159 4.593,-4.626 v -1.963 h -14 v 1.963 c 3.653,0.464 4.581,0.945 6.573,5.94 L 0.992,9.21 3.451,9.671 c 3.692,-10.03 7.656,-20.577 11.385,-30.385 2.045,-5.272 2.566,-5.699 6.459,-6.163 v -1.963 z"
       style="fill:#16507c;fill-opacity:1;fill-rule:nonzero;stroke:none"
       transform="matrix(1.3333333,0,0,-1.3333333,552.30147,818.2984)"
       clip-path="url(#clipPath16)" />
    <path
       id="path17"
       d="m 0,0 -0.003,1.156 c 4.797,0.963 9.818,0.904 14.664,1.76 27.228,4.808 48.083,32.519 77.818,26.524 5.779,-1.165 14.396,-5.881 11.848,-12.877 -6.025,2.066 -12.072,3.787 -18.507,2.345 -4.418,-0.99 -9.1,-4.317 -7.195,-9.403 1.574,-4.203 10.848,-6.454 14.849,-7.04 17.1,-2.503 35.221,1.917 52.021,4.806 l -19.321,8.843 c -13.932,7.897 -28.111,24.395 -36.784,37.802 -2.509,3.879 -7.601,14.348 -11.303,16.261 -1.025,0.53 -2.168,0.764 -3.324,0.764 -8.3,0 -16.594,-14.462 -22.691,-19.501 -4.443,-3.671 -8.032,-4.82 -13.395,-2.026 -2.384,1.241 -3.788,3.992 -6.832,2.388 -1.15,-0.605 -6,-7.335 -7.341,-8.87 -5.895,-6.747 -23.74,-25.548 -32.436,-26.347 -0.615,-0.056 -1.173,-0.242 -1.019,0.616 0.212,1.255 6.415,6.469 7.699,8.113 1.936,2.477 5.615,10.171 -0.089,9.828 -5.076,-0.306 -15.4,-9.312 -20.043,-12.396 -15.03,-9.986 -39.072,-21.947 -57.48,-19.53 -1.026,0.135 -7.105,0.982 -5.882,2.828 0.164,0.246 4.905,1.102 5.762,1.337 16.268,4.465 32.799,11.735 46.494,21.606 7.641,5.508 19.4,18.413 29.018,18.405 3.604,-0.003 10.074,-3.596 12.667,-2.525 0.93,0.384 4.602,4.331 5.58,5.361 4.078,4.296 11.154,14.391 16.64,15.789 0.943,0.24 1.796,0.507 2.799,0.45 6.015,-0.336 7.807,-6.48 14.408,-1.037 6.415,5.29 9.575,11.755 17.838,15.402 21.572,9.521 27.615,-12.782 36.706,-26.517 16.893,-25.523 37.674,-39.402 67.787,-45.308 4.856,-0.953 10.375,-1.146 15.096,-2.335 1.265,-0.319 2.394,-0.495 3.22,-1.636 C 188.476,4.19 187.287,3.887 186.197,3.658 179.848,2.322 171.177,2.974 164.07,1.868 137.663,-2.241 114.301,-13.067 86.637,-6.803 77.271,-4.683 68.469,0.82 58.948,1.989 45.613,3.626 33.201,-2.594 20.056,-3.291 13.105,-3.659 6.492,-2.371 0,0"
       style="fill:#16507c;fill-opacity:1;fill-rule:nonzero;stroke:none"
       transform="matrix(1.3333333,0,0,-1.3333333,327.27573,779.236)"
       clip-path="url(#clipPath18)" />
  </g>
</svg>
