<?xml version="1.0" encoding="UTF-8" standalone="no"?>
<!-- Created with Inkscape (http://www.inkscape.org/) -->

<svg
   version="1.1"
   id="svg1"
   width="440.24878"
   height="350.00668"
   viewBox="0 0 440.24878 350.00668"
   xmlns="http://www.w3.org/2000/svg"
   xmlns:svg="http://www.w3.org/2000/svg">
  <defs
     id="defs1">
    <clipPath
       clipPathUnits="userSpaceOnUse"
       id="clipPath20">
      <path
         d="M 0,841.89 H 595.276 V 0 H 0 Z"
         transform="translate(-146.7748,-559.19701)"
         id="path20" />
    </clipPath>
    <clipPath
       clipPathUnits="userSpaceOnUse"
       id="clipPath22">
      <path
         d="M 0,841.89 H 595.276 V 0 H 0 Z"
         transform="translate(-160.7578,-571.38811)"
         id="path22" />
    </clipPath>
    <clipPath
       clipPathUnits="userSpaceOnUse"
       id="clipPath24">
      <path
         d="M 0,841.89 H 595.276 V 0 H 0 Z"
         transform="translate(-195.69711,-571.62731)"
         id="path24" />
    </clipPath>
    <clipPath
       clipPathUnits="userSpaceOnUse"
       id="clipPath26">
      <path
         d="M 0,841.89 H 595.276 V 0 H 0 Z"
         transform="translate(-218.56471,-571.62731)"
         id="path26" />
    </clipPath>
    <clipPath
       clipPathUnits="userSpaceOnUse"
       id="clipPath28">
      <path
         d="M 0,841.89 H 595.276 V 0 H 0 Z"
         transform="translate(-244.85841,-559.11742)"
         id="path28" />
    </clipPath>
    <clipPath
       clipPathUnits="userSpaceOnUse"
       id="clipPath30">
      <path
         d="M 0,841.89 H 595.276 V 0 H 0 Z"
         transform="translate(-265.1359,-571.38811)"
         id="path30" />
    </clipPath>
    <clipPath
       clipPathUnits="userSpaceOnUse"
       id="clipPath32">
      <path
         d="M 0,841.89 H 595.276 V 0 H 0 Z"
         transform="translate(-302.74441,-559.35641)"
         id="path32" />
    </clipPath>
    <clipPath
       clipPathUnits="userSpaceOnUse"
       id="clipPath34">
      <path
         d="M 0,841.89 H 595.276 V 0 H 0 Z"
         transform="translate(-322.62341,-557.76281)"
         id="path34" />
    </clipPath>
    <clipPath
       clipPathUnits="userSpaceOnUse"
       id="clipPath36">
      <path
         d="M 0,841.89 H 595.276 V 0 H 0 Z"
         transform="translate(-349.91311,-571.38811)"
         id="path36" />
    </clipPath>
    <clipPath
       clipPathUnits="userSpaceOnUse"
       id="clipPath38">
      <path
         d="M 0,841.89 H 595.276 V 0 H 0 Z"
         transform="translate(-394.17491,-576.76661)"
         id="path38" />
    </clipPath>
    <clipPath
       clipPathUnits="userSpaceOnUse"
       id="clipPath40">
      <path
         d="M 0,841.89 H 595.276 V 0 H 0 Z"
         transform="translate(-421.54451,-559.19701)"
         id="path40" />
    </clipPath>
    <clipPath
       clipPathUnits="userSpaceOnUse"
       id="clipPath42">
      <path
         d="M 0,841.89 H 595.276 V 0 H 0 Z"
         transform="translate(-438.27641,-577.04551)"
         id="path42" />
    </clipPath>
    <clipPath
       clipPathUnits="userSpaceOnUse"
       id="clipPath44">
      <path
         d="M 0,841.89 H 595.276 V 0 H 0 Z"
         transform="translate(-222.89691,-521.40391)"
         id="path44" />
    </clipPath>
    <clipPath
       clipPathUnits="userSpaceOnUse"
       id="clipPath46">
      <path
         d="M 0,841.89 H 595.276 V 0 H 0 Z"
         transform="translate(-245.46321,-532.09342)"
         id="path46" />
    </clipPath>
    <clipPath
       clipPathUnits="userSpaceOnUse"
       id="clipPath48">
      <path
         d="M 0,841.89 H 595.276 V 0 H 0 Z"
         transform="translate(-262.56181,-529.04581)"
         id="path48" />
    </clipPath>
    <clipPath
       clipPathUnits="userSpaceOnUse"
       id="clipPath50">
      <path
         d="M 0,841.89 H 595.276 V 0 H 0 Z"
         transform="translate(-264.98151,-518.35621)"
         id="path50" />
    </clipPath>
    <clipPath
       clipPathUnits="userSpaceOnUse"
       id="clipPath52">
      <path
         d="M 0,841.89 H 595.276 V 0 H 0 Z"
         transform="translate(-279.3682,-525.54982)"
         id="path52" />
    </clipPath>
    <clipPath
       clipPathUnits="userSpaceOnUse"
       id="clipPath54">
      <path
         d="M 0,841.89 H 595.276 V 0 H 0 Z"
         transform="translate(-294.40501,-525.54982)"
         id="path54" />
    </clipPath>
    <clipPath
       clipPathUnits="userSpaceOnUse"
       id="clipPath56">
      <path
         d="M 0,841.89 H 595.276 V 0 H 0 Z"
         transform="translate(-316.18711,-522.16591)"
         id="path56" />
    </clipPath>
    <clipPath
       clipPathUnits="userSpaceOnUse"
       id="clipPath58">
      <path
         d="M 0,841.89 H 595.276 V 0 H 0 Z"
         transform="translate(-333.12871,-532.09342)"
         id="path58" />
    </clipPath>
    <clipPath
       clipPathUnits="userSpaceOnUse"
       id="clipPath60">
      <path
         d="M 0,841.89 H 595.276 V 0 H 0 Z"
         transform="translate(-334.51771,-518.35621)"
         id="path60" />
    </clipPath>
    <clipPath
       clipPathUnits="userSpaceOnUse"
       id="clipPath62">
      <path
         d="M 0,841.89 H 595.276 V 0 H 0 Z"
         transform="translate(-348.81481,-529.06811)"
         id="path62" />
    </clipPath>
    <clipPath
       clipPathUnits="userSpaceOnUse"
       id="clipPath64">
      <path
         d="M 0,841.89 H 595.276 V 0 H 0 Z"
         transform="translate(-352.10911,-629.84752)"
         id="path64" />
    </clipPath>
    <clipPath
       clipPathUnits="userSpaceOnUse"
       id="clipPath66">
      <path
         d="M 0,841.89 H 595.276 V 0 H 0 Z"
         transform="translate(-234.05941,-581.55802)"
         id="path66" />
    </clipPath>
  </defs>
  <g
     id="layer-MC0"
     transform="translate(-162.76501,-81.700776)">
    <g
       id="g457">
      <path
         id="path19"
         d="m 0,0 c -0.558,-1.992 -1.594,-5.02 -2.231,-6.414 -1.036,-0.239 -4.303,-1.036 -7.331,-1.036 -10.717,0 -15.139,6.892 -15.139,13.227 0,8.247 6.295,13.825 15.856,13.825 3.467,0 6.534,-0.837 7.53,-0.957 0.2,-1.872 0.478,-4.82 0.757,-6.573 l -1.593,-0.279 c -0.837,3.107 -2.032,4.581 -4.144,5.418 -0.956,0.398 -2.39,0.558 -3.466,0.558 -5.777,0 -8.685,-4.821 -8.685,-11.076 0,-7.291 3.745,-12.231 9.203,-12.231 3.347,0 5.578,1.753 7.729,6.136 z"
         style="fill:#231f20;fill-opacity:1;fill-rule:nonzero;stroke:none"
         transform="matrix(1.3333333,0,0,-1.3333333,195.69973,376.924)"
         clip-path="url(#clipPath20)" />
      <path
         id="path21"
         d="m 0,0 c -1.155,-2.868 -2.271,-5.538 -3.267,-8.446 h 6.335 z m 3.506,-19.044 v 1.474 c 2.51,0.359 2.51,0.797 1.952,2.51 -0.398,1.196 -1.036,2.988 -1.633,4.582 h -7.769 c -0.438,-1.235 -0.996,-2.749 -1.395,-3.984 -0.836,-2.51 0.12,-2.829 3.267,-3.108 v -1.474 h -9.84 v 1.474 c 2.51,0.319 3.147,0.678 4.502,4.024 L 0.877,7.052 2.789,7.41 c 2.55,-6.932 5.259,-14.023 7.848,-20.677 1.474,-3.705 1.833,-3.984 4.423,-4.303 v -1.474 z"
         style="fill:#231f20;fill-opacity:1;fill-rule:nonzero;stroke:none"
         transform="matrix(1.3333333,0,0,-1.3333333,214.34373,360.6692)"
         clip-path="url(#clipPath22)" />
      <path
         id="path23"
         d="M 0,0 C -0.438,1.514 -1.076,2.988 -1.753,3.745 -2.59,4.622 -3.108,4.781 -5.02,4.781 h -2.988 c -1.354,0 -1.514,-0.08 -1.514,-1.434 v -8.686 h 4.263 c 2.351,0 2.669,0.598 3.267,3.387 h 1.474 v -8.845 h -1.514 c -0.438,2.709 -1.036,3.387 -3.227,3.387 h -4.263 v -6.215 c 0,-3.666 0.239,-3.945 3.825,-4.184 v -1.474 h -12.749 v 1.474 c 3.028,0.279 3.386,0.518 3.386,4.184 V 1.036 c 0,3.546 -0.358,3.864 -3.386,4.103 V 6.614 H -4.94 c 3.426,0 5.418,0.039 6.056,0.079 C 1.155,6.016 1.355,2.59 1.554,0.239 Z"
         style="fill:#231f20;fill-opacity:1;fill-rule:nonzero;stroke:none"
         transform="matrix(1.3333333,0,0,-1.3333333,260.92947,360.35027)"
         clip-path="url(#clipPath24)" />
      <path
         id="path25"
         d="M 0,0 C -0.438,1.514 -1.076,2.988 -1.753,3.745 -2.59,4.622 -3.108,4.781 -5.02,4.781 h -2.988 c -1.354,0 -1.514,-0.08 -1.514,-1.434 v -8.686 h 4.263 c 2.351,0 2.669,0.598 3.267,3.387 h 1.474 v -8.845 h -1.514 c -0.438,2.709 -1.036,3.387 -3.227,3.387 h -4.263 v -6.215 c 0,-3.666 0.239,-3.945 3.825,-4.184 v -1.474 h -12.749 v 1.474 c 3.028,0.279 3.386,0.518 3.386,4.184 V 1.036 c 0,3.546 -0.358,3.864 -3.386,4.103 V 6.614 H -4.94 c 3.426,0 5.418,0.039 6.056,0.079 C 1.155,6.016 1.355,2.59 1.554,0.239 Z"
         style="fill:#231f20;fill-opacity:1;fill-rule:nonzero;stroke:none"
         transform="matrix(1.3333333,0,0,-1.3333333,291.4196,360.35027)"
         clip-path="url(#clipPath26)" />
      <path
         id="path27"
         d="M 0,0 C -0.199,-1.076 -1.315,-5.657 -1.673,-6.773 H -22.35 v 1.434 c 3.625,0.359 3.864,0.558 3.864,3.905 v 15.219 c 0,3.386 -0.478,3.625 -3.187,3.864 v 1.474 h 12.948 c 4.183,0 5.578,0.04 6.135,0.08 0.04,-0.717 0.239,-3.984 0.399,-6.454 L -3.745,12.55 c -0.359,1.354 -1.036,2.988 -1.713,3.705 -0.717,0.797 -1.235,1.036 -3.267,1.036 h -2.59 c -1.514,0 -1.673,-0.08 -1.673,-1.435 V 7.53 h 3.904 c 2.232,0 2.63,0.597 3.228,3.426 h 1.553 V 2.072 H -5.856 C -6.494,5.02 -6.813,5.498 -9.123,5.498 h -3.865 v -6.853 c 0,-2.749 0.08,-3.585 2.55,-3.625 h 2.829 c 2.231,0 2.828,0.279 3.705,1.355 0.996,1.155 1.793,2.629 2.43,3.984 z"
         style="fill:#231f20;fill-opacity:1;fill-rule:nonzero;stroke:none"
         transform="matrix(1.3333333,0,0,-1.3333333,326.47787,377.03013)"
         clip-path="url(#clipPath28)" />
      <path
         id="path29"
         d="m 0,0 c -1.155,-2.868 -2.271,-5.538 -3.267,-8.446 h 6.335 z m 3.506,-19.044 v 1.474 c 2.51,0.359 2.51,0.797 1.952,2.51 -0.398,1.196 -1.036,2.988 -1.633,4.582 h -7.769 c -0.438,-1.235 -0.996,-2.749 -1.395,-3.984 -0.836,-2.51 0.12,-2.829 3.267,-3.108 v -1.474 h -9.84 v 1.474 c 2.51,0.319 3.147,0.678 4.502,4.024 L 0.877,7.052 2.789,7.41 c 2.55,-6.932 5.259,-14.023 7.848,-20.677 1.474,-3.705 1.833,-3.984 4.423,-4.303 v -1.474 z"
         style="fill:#231f20;fill-opacity:1;fill-rule:nonzero;stroke:none"
         transform="matrix(1.3333333,0,0,-1.3333333,353.51453,360.6692)"
         clip-path="url(#clipPath30)" />
      <path
         id="path31"
         d="m 0,0 c -0.319,-1.713 -1.434,-5.936 -1.793,-7.012 h -19.761 v 1.474 c 3.506,0.239 3.825,0.518 3.825,3.865 v 15.179 c 0,3.346 -0.398,3.665 -3.386,3.904 v 1.474 h 12.43 V 17.41 c -3.108,-0.279 -3.506,-0.558 -3.506,-3.904 V -1.952 c 0,-2.191 0.079,-3.187 2.271,-3.227 0.079,-0.04 1.912,-0.04 2.071,-0.04 2.271,0 2.869,0.478 3.825,1.554 0.757,0.797 1.793,2.51 2.51,4.143 z"
         style="fill:#231f20;fill-opacity:1;fill-rule:nonzero;stroke:none"
         transform="matrix(1.3333333,0,0,-1.3333333,403.6592,376.71147)"
         clip-path="url(#clipPath32)" />
      <path
         id="path33"
         d="m 0,0 c 0,-2.868 1.315,-3.745 3.466,-3.705 2.191,0.04 4.343,1.952 4.343,5.657 0,3.865 -1.952,5.697 -6.415,5.697 H 0 Z m 1.554,9.362 c 3.785,0 5.179,1.634 5.179,4.582 0,3.466 -2.271,4.781 -4.462,4.781 -0.956,0 -1.554,-0.12 -1.873,-0.319 C -0.04,18.127 0,17.769 0,16.932 v -7.57 z m 5.06,-0.517 c 4.183,-0.757 7.131,-2.749 7.131,-6.534 0,-2.47 -1.554,-4.781 -3.825,-6.056 C 7.888,-4.86 5.299,-5.418 2.351,-5.418 H -8.805 v 1.474 c 3.068,0.319 3.387,0.518 3.387,3.864 v 15.179 c 0,3.347 -0.518,3.706 -3.347,3.905 v 1.474 H 3.347 c 3.027,0 4.94,-0.398 6.533,-1.395 1.475,-0.956 2.431,-2.47 2.431,-4.422 0,-3.307 -3.108,-5.299 -5.697,-5.816"
         style="fill:#231f20;fill-opacity:1;fill-rule:nonzero;stroke:none"
         transform="matrix(1.3333333,0,0,-1.3333333,430.16453,378.83627)"
         clip-path="url(#clipPath34)" />
      <path
         id="path35"
         d="m 0,0 c -1.155,-2.868 -2.271,-5.538 -3.267,-8.446 h 6.335 z m 3.506,-19.044 v 1.474 c 2.51,0.359 2.51,0.797 1.952,2.51 -0.398,1.196 -1.036,2.988 -1.633,4.582 h -7.769 c -0.438,-1.235 -0.996,-2.749 -1.395,-3.984 -0.836,-2.51 0.12,-2.829 3.267,-3.108 v -1.474 h -9.84 v 1.474 c 2.51,0.319 3.147,0.678 4.502,4.024 L 0.876,7.052 2.789,7.41 c 2.55,-6.932 5.259,-14.023 7.848,-20.677 1.474,-3.705 1.833,-3.984 4.423,-4.303 v -1.474 z"
         style="fill:#231f20;fill-opacity:1;fill-rule:nonzero;stroke:none"
         transform="matrix(1.3333333,0,0,-1.3333333,466.5508,360.6692)"
         clip-path="url(#clipPath36)" />
      <path
         id="path37"
         d="M 0,0 C -2.43,-0.319 -3.187,-0.837 -3.307,-2.629 -3.426,-4.183 -3.546,-5.538 -3.546,-9.004 V -24.86 H -5.777 L -22.39,-4.94 v -9.004 c 0,-3.466 0.08,-5.02 0.199,-6.175 0.159,-1.753 0.996,-2.67 3.944,-2.829 v -1.474 h -9.88 v 1.474 c 2.271,0.199 3.267,0.797 3.506,2.669 0.159,1.435 0.239,2.869 0.239,6.335 v 9.442 c 0,1.315 -0.08,2.191 -0.837,3.227 -0.717,0.996 -1.673,1.116 -3.346,1.275 v 1.474 h 7.768 l 15.18,-17.649 v 7.171 c 0,3.466 -0.04,4.781 -0.16,6.255 C -5.896,-1.036 -6.534,-0.199 -9.84,0 V 1.474 H 0 Z"
         style="fill:#231f20;fill-opacity:1;fill-rule:nonzero;stroke:none"
         transform="matrix(1.3333333,0,0,-1.3333333,525.56653,353.49787)"
         clip-path="url(#clipPath38)" />
      <path
         id="path39"
         d="m 0,0 c -0.558,-1.992 -1.594,-5.02 -2.231,-6.414 -1.036,-0.239 -4.303,-1.036 -7.331,-1.036 -10.717,0 -15.139,6.892 -15.139,13.227 0,8.247 6.295,13.825 15.857,13.825 3.466,0 6.533,-0.837 7.529,-0.957 0.199,-1.872 0.478,-4.82 0.757,-6.573 l -1.593,-0.279 c -0.837,3.107 -2.032,4.581 -4.144,5.418 -0.956,0.398 -2.39,0.558 -3.466,0.558 -5.777,0 -8.685,-4.821 -8.685,-11.076 0,-7.291 3.745,-12.231 9.203,-12.231 3.347,0 5.578,1.753 7.729,6.136 z"
         style="fill:#231f20;fill-opacity:1;fill-rule:nonzero;stroke:none"
         transform="matrix(1.3333333,0,0,-1.3333333,562.05933,376.924)"
         clip-path="url(#clipPath40)" />
      <path
         id="path41"
         d="m 0,0 c -4.064,0 -7.052,-3.984 -7.052,-11.036 0,-6.733 2.67,-12.51 8.048,-12.51 3.785,0 6.733,3.666 6.733,10.956 C 7.729,-4.701 4.622,0 0,0 m 0.598,1.753 c 7.37,0 13.386,-5.378 13.386,-13.227 0,-8.486 -6.056,-13.824 -13.586,-13.824 -7.968,0 -13.744,5.816 -13.744,13.505 0,6.813 4.86,13.546 13.944,13.546"
         style="fill:#231f20;fill-opacity:1;fill-rule:nonzero;stroke:none"
         transform="matrix(1.3333333,0,0,-1.3333333,584.36853,353.126)"
         clip-path="url(#clipPath42)" />
      <path
         id="path43"
         d="m 0,0 c 0,-1.613 0.739,-2.106 1.95,-2.084 1.232,0.022 2.442,1.098 2.442,3.182 0,2.174 -1.098,3.205 -3.608,3.205 H 0 Z m 0.874,5.266 c 2.129,0 2.913,0.919 2.913,2.578 0,1.949 -1.277,2.689 -2.51,2.689 -0.538,0 -0.874,-0.068 -1.053,-0.18 C -0.022,10.197 0,9.995 0,9.524 V 5.266 Z M 3.72,4.975 C 6.073,4.549 7.731,3.429 7.731,1.3 7.731,-0.09 6.857,-1.389 5.58,-2.106 4.437,-2.734 2.981,-3.048 1.322,-3.048 h -6.275 v 0.829 c 1.726,0.18 1.905,0.292 1.905,2.174 v 8.538 c 0,1.883 -0.291,2.084 -1.882,2.197 v 0.829 h 6.812 c 1.704,0 2.779,-0.224 3.676,-0.785 C 6.387,10.197 6.925,9.345 6.925,8.247 6.925,6.387 5.177,5.266 3.72,4.975"
         style="fill:#231f20;fill-opacity:1;fill-rule:nonzero;stroke:none"
         transform="matrix(1.3333333,0,0,-1.3333333,297.19587,427.3148)"
         clip-path="url(#clipPath44)" />
      <path
         id="path45"
         d="m 0,0 c -1.434,-0.157 -1.95,-0.471 -2.756,-1.838 -0.807,-1.389 -1.502,-2.622 -2.6,-4.863 -0.179,-0.358 -0.246,-0.627 -0.246,-1.187 v -2.779 c 0,-1.95 0.179,-2.017 2.016,-2.241 v -0.829 h -7.081 v 0.829 c 1.77,0.224 1.927,0.291 1.927,2.241 v 2.577 c 0,0.493 -0.089,0.717 -0.246,1.031 -0.65,1.322 -1.479,2.824 -2.824,5.177 -0.829,1.456 -1.165,1.747 -2.465,1.882 v 0.829 h 6.566 V 0 c -1.501,-0.202 -1.457,-0.493 -1.076,-1.277 0.74,-1.457 1.703,-3.25 2.555,-4.886 0.672,1.255 1.748,3.407 2.375,4.774 0.426,0.896 0.247,1.187 -1.366,1.389 V 0.829 H 0 Z"
         style="fill:#231f20;fill-opacity:1;fill-rule:nonzero;stroke:none"
         transform="matrix(1.3333333,0,0,-1.3333333,327.28427,413.06213)"
         clip-path="url(#clipPath46)" />
      <path
         id="path47"
         d="m 0,0 c -0.246,1.031 -0.74,1.882 -0.964,2.196 -0.403,0.471 -0.582,0.65 -1.904,0.65 H -4.303 V -7.687 c 0,-1.882 0.224,-2.017 2.219,-2.173 v -0.83 h -7.44 v 0.83 c 1.905,0.156 2.106,0.291 2.106,2.173 V 2.846 h -1.367 c -1.255,0 -1.613,-0.202 -2.039,-0.74 -0.314,-0.425 -0.627,-1.232 -0.919,-2.128 h -0.851 c 0.157,1.635 0.313,3.383 0.358,4.459 h 0.672 c 0.337,-0.515 0.606,-0.56 1.278,-0.56 h 8.964 c 0.605,0 0.919,0.134 1.3,0.56 H 0.627 C 0.65,3.496 0.739,1.524 0.852,0.067 Z"
         style="fill:#231f20;fill-opacity:1;fill-rule:nonzero;stroke:none"
         transform="matrix(1.3333333,0,0,-1.3333333,350.0824,417.1256)"
         clip-path="url(#clipPath48)" />
      <path
         id="path49"
         d="M 0,0 V 0.829 C 1.703,0.986 1.905,1.12 1.905,3.003 v 8.538 c 0,1.883 -0.224,2.062 -1.905,2.196 v 0.829 H 6.925 V 13.737 C 5.244,13.58 5.02,13.424 5.02,11.541 V 3.003 c 0,-1.86 0.202,-1.995 1.905,-2.174 V 0 Z"
         style="fill:#231f20;fill-opacity:1;fill-rule:nonzero;stroke:none"
         transform="matrix(1.3333333,0,0,-1.3333333,353.30867,431.3784)"
         clip-path="url(#clipPath50)" />
      <path
         id="path51"
         d="m 0,0 c 0.964,0 1.703,0.157 2.196,0.583 0.74,0.627 1.053,1.479 1.053,2.621 0,2.376 -1.367,3.228 -2.621,3.228 -0.606,0 -0.897,-0.09 -1.031,-0.225 C -0.56,6.073 -0.605,5.804 -0.605,5.356 V 0 Z m 8.538,-7.328 c -0.134,0 -0.403,0 -0.672,0.022 -2.846,0.135 -3.675,0.74 -4.348,1.681 -0.896,1.233 -1.546,2.6 -2.308,3.944 -0.336,0.605 -0.65,0.74 -1.367,0.74 l -0.448,0.022 v -3.272 c 0,-1.815 0.224,-1.972 1.905,-2.173 v -0.83 h -6.858 v 0.83 c 1.703,0.179 1.905,0.358 1.905,2.173 v 8.583 c 0,1.771 -0.224,2.017 -1.905,2.152 V 7.373 H 0.941 C 2.936,7.373 4.079,7.149 4.997,6.521 5.894,5.916 6.499,4.93 6.499,3.541 6.499,1.546 5.177,0.493 3.698,-0.09 4.034,-0.762 4.908,-2.219 5.58,-3.249 6.364,-4.482 6.857,-5.087 7.283,-5.58 7.799,-6.163 8.045,-6.342 8.695,-6.566 Z"
         style="fill:#231f20;fill-opacity:1;fill-rule:nonzero;stroke:none"
         transform="matrix(1.3333333,0,0,-1.3333333,372.49093,421.78693)"
         clip-path="url(#clipPath52)" />
      <path
         id="path53"
         d="m 0,0 c 0.964,0 1.703,0.157 2.196,0.583 0.74,0.627 1.053,1.479 1.053,2.621 0,2.376 -1.367,3.228 -2.621,3.228 -0.606,0 -0.897,-0.09 -1.031,-0.225 C -0.56,6.073 -0.605,5.804 -0.605,5.356 V 0 Z m 8.538,-7.328 c -0.134,0 -0.403,0 -0.672,0.022 -2.846,0.135 -3.675,0.74 -4.348,1.681 -0.896,1.233 -1.546,2.6 -2.308,3.944 -0.336,0.605 -0.65,0.74 -1.367,0.74 l -0.448,0.022 v -3.272 c 0,-1.815 0.224,-1.972 1.905,-2.173 v -0.83 h -6.858 v 0.83 c 1.704,0.179 1.905,0.358 1.905,2.173 v 8.583 c 0,1.771 -0.224,2.017 -1.905,2.152 V 7.373 H 0.941 C 2.936,7.373 4.079,7.149 4.997,6.521 5.894,5.916 6.499,4.93 6.499,3.541 6.499,1.546 5.177,0.493 3.698,-0.09 4.034,-0.762 4.908,-2.219 5.58,-3.249 6.364,-4.482 6.857,-5.087 7.283,-5.58 7.799,-6.163 8.045,-6.342 8.695,-6.566 Z"
         style="fill:#231f20;fill-opacity:1;fill-rule:nonzero;stroke:none"
         transform="matrix(1.3333333,0,0,-1.3333333,392.54,421.78693)"
         clip-path="url(#clipPath54)" />
      <path
         id="path55"
         d="m 0,0 c -0.112,-0.605 -0.74,-3.182 -0.941,-3.81 h -11.631 v 0.807 c 2.039,0.202 2.174,0.314 2.174,2.196 v 8.561 c 0,1.905 -0.269,2.039 -1.793,2.174 v 0.829 h 7.283 c 2.353,0 3.138,0.022 3.451,0.044 0.023,-0.403 0.135,-2.241 0.224,-3.63 L -2.106,7.059 C -2.308,7.821 -2.689,8.74 -3.07,9.143 -3.474,9.591 -3.765,9.726 -4.908,9.726 h -1.456 c -0.852,0 -0.942,-0.045 -0.942,-0.807 V 4.235 h 2.197 c 1.255,0 1.479,0.337 1.815,1.928 H -2.42 V 1.165 h -0.874 c -0.359,1.659 -0.538,1.928 -1.838,1.928 h -2.174 v -3.855 c 0,-1.546 0.045,-2.017 1.435,-2.039 h 1.591 c 1.255,0 1.591,0.157 2.084,0.762 0.56,0.65 1.008,1.479 1.367,2.241 z"
         style="fill:#231f20;fill-opacity:1;fill-rule:nonzero;stroke:none"
         transform="matrix(1.3333333,0,0,-1.3333333,421.5828,426.2988)"
         clip-path="url(#clipPath56)" />
      <path
         id="path57"
         d="m 0,0 c -1.367,-0.179 -1.793,-0.471 -1.86,-1.479 -0.067,-0.874 -0.135,-1.636 -0.135,-3.586 v -8.919 H -3.25 l -9.344,11.205 v -5.065 c 0,-1.949 0.044,-2.823 0.112,-3.473 0.089,-0.986 0.56,-1.501 2.218,-1.591 v -0.829 h -5.557 v 0.829 c 1.277,0.112 1.837,0.448 1.972,1.501 0.089,0.807 0.134,1.614 0.134,3.563 v 5.312 c 0,0.739 -0.045,1.232 -0.47,1.815 -0.404,0.56 -0.942,0.627 -1.883,0.717 v 0.829 h 4.37 l 8.538,-9.927 v 4.033 c 0,1.95 -0.022,2.69 -0.09,3.519 C -3.317,-0.583 -3.675,-0.112 -5.535,0 V 0.829 H 0 Z"
         style="fill:#231f20;fill-opacity:1;fill-rule:nonzero;stroke:none"
         transform="matrix(1.3333333,0,0,-1.3333333,444.1716,413.06213)"
         clip-path="url(#clipPath58)" />
      <path
         id="path59"
         d="M 0,0 V 0.829 C 1.703,0.986 1.905,1.12 1.905,3.003 v 8.538 c 0,1.883 -0.224,2.062 -1.905,2.196 v 0.829 H 6.925 V 13.737 C 5.244,13.58 5.02,13.424 5.02,11.541 V 3.003 c 0,-1.86 0.201,-1.995 1.905,-2.174 V 0 Z"
         style="fill:#231f20;fill-opacity:1;fill-rule:nonzero;stroke:none"
         transform="matrix(1.3333333,0,0,-1.3333333,446.0236,431.3784)"
         clip-path="url(#clipPath60)" />
      <path
         id="path61"
         d="m 0,0 c -0.65,-1.613 -1.277,-3.115 -1.838,-4.751 h 3.564 z m 1.972,-10.712 v 0.829 c 1.412,0.202 1.412,0.449 1.098,1.412 -0.224,0.673 -0.582,1.681 -0.919,2.577 h -4.37 c -0.246,-0.694 -0.56,-1.546 -0.784,-2.241 -0.471,-1.411 0.067,-1.591 1.838,-1.748 v -0.829 H -6.7 v 0.829 c 1.411,0.18 1.77,0.381 2.532,2.264 L 0.493,3.967 1.569,4.168 C 3.003,0.269 4.527,-3.72 5.983,-7.462 6.813,-9.546 7.014,-9.703 8.471,-9.883 v -0.829 z"
         style="fill:#231f20;fill-opacity:1;fill-rule:nonzero;stroke:none"
         transform="matrix(1.3333333,0,0,-1.3333333,465.0864,417.09587)"
         clip-path="url(#clipPath62)" />
      <path
         id="path63"
         d="m 0,0 c 1.135,-0.235 7.882,-1.593 7.524,-3.055 -0.437,-1.781 -13.731,-4.328 -16.01,-4.741 -35.549,-6.446 -86.944,-6.476 -122.531,-0.434 -3.884,0.66 -14.525,2.493 -17.26,4.758 -0.831,0.688 0.439,1.248 1.021,1.497 6.005,2.571 24.055,4.532 31.059,4.926 6.05,0.341 3.465,-1.769 6.647,-5.38 3.136,-3.559 12.598,-4.524 17.367,-5.074 13.569,-1.564 31.299,-1.482 44.875,-10e-4 4.74,0.517 11.562,1.07 15.235,4.241 2.052,1.772 3.258,6.058 5.493,6.363 C -22.061,3.716 -5.161,1.067 0,0 M -2.564,52.215 C 8.134,59.832 21.775,52.199 13.8,38.933 11.285,34.749 3.61,30.23 -1.155,29.33 l -12.254,-2.611 c 2.337,7.566 7.714,17.711 10.845,25.496 M 28.487,51.774 C 25.334,65.23 12.095,68.617 -0.094,65.742 c 0.124,1.026 1.466,6.395 -0.911,9.465 -2.759,3.564 -15.202,4.596 -19.744,5.115 -12.071,1.376 -23.763,1.645 -35.629,1.901 l -3.207,0.063 c 0.021,-0.03 0.045,-0.067 0.067,-0.098 -0.787,1.093 -1.547,2.2 -2,3.383 -1.431,3.735 -1.315,6.991 1.068,9.62 0.079,-0.009 0.157,-0.011 0.236,-0.021 6.524,-0.8 12.556,-4.571 18.973,-6.024 18.955,-4.292 34.963,3.126 53.058,5.942 4.869,0.757 10.81,0.31 15.161,1.226 0.747,0.157 1.562,0.365 2.105,0.944 -0.566,0.782 -1.339,0.902 -2.206,1.121 -3.235,0.815 -7.017,0.947 -10.344,1.6 -20.634,4.047 -34.873,13.557 -46.448,31.045 -6.229,9.411 -10.37,24.694 -25.151,18.17 -5.662,-2.499 -7.827,-6.929 -12.223,-10.554 -4.523,-3.729 -5.751,0.48 -9.873,0.711 -0.686,0.039 -1.271,-0.144 -1.917,-0.309 -3.76,-0.957 -8.608,-7.875 -11.402,-10.818 -0.67,-0.706 -3.187,-3.411 -3.824,-3.674 -1.776,-0.733 -6.21,1.728 -8.679,1.73 -6.59,0.006 -14.647,-8.836 -19.883,-12.61 -9.384,-6.764 -20.711,-11.746 -31.858,-14.805 -0.587,-0.161 -3.836,-0.747 -3.948,-0.916 -0.838,-1.265 3.327,-1.846 4.03,-1.938 12.613,-1.656 29.087,6.539 39.386,13.382 3.181,2.113 10.255,8.284 13.733,8.494 3.909,0.235 1.387,-5.037 0.061,-6.735 -0.88,-1.126 -5.13,-4.698 -5.275,-5.558 -0.106,-0.588 0.276,-0.461 0.698,-0.422 5.958,0.547 18.186,13.43 22.225,18.052 0.919,1.052 4.242,5.664 5.03,6.078 2.086,1.099 3.048,-0.786 4.681,-1.636 3.676,-1.914 6.135,-1.127 9.179,1.389 4.178,3.452 9.861,13.362 15.548,13.361 0.792,0 1.576,-0.16 2.278,-0.523 2.536,-1.311 6.026,-8.484 7.745,-11.142 5.942,-9.187 15.658,-20.491 25.204,-25.902 l 13.239,-6.06 c -11.511,-1.979 -23.928,-5.008 -35.645,-3.292 -2.741,0.401 -9.096,1.943 -10.175,4.823 -1.305,3.485 1.903,5.765 4.931,6.443 4.408,0.989 8.552,-0.191 12.68,-1.607 1.746,4.794 -4.158,8.025 -8.118,8.824 -20.375,4.108 -34.664,-14.88 -53.321,-18.175 -3.32,-0.586 -6.761,-0.546 -10.048,-1.206 l 0.002,-0.792 c 4.448,-1.624 8.979,-2.507 13.743,-2.255 5.158,0.274 10.151,1.786 15.193,2.82 -0.336,-0.653 -0.71,-1.278 -1.135,-1.859 0.065,0.018 0.131,0.032 0.196,0.05 -2.547,-7.721 6.448,-12.085 6.945,-17.399 0.186,-1.991 -0.731,-4.243 -3.996,-6.732 -0.382,-0.289 -0.642,-0.504 -1.298,-0.95 0.264,-0.146 0.527,-0.029 0.95,0.041 1.041,0.17 10.503,2.629 12.425,5.638 0.428,0.684 0.682,1.32 0.821,1.945 0.062,0.27 0.094,0.533 0.109,0.793 26.529,-0.551 46.339,-2.717 46.339,-5.307 0,-1.724 -8.781,-3.259 -22.469,-4.257 -5.212,-0.472 -10.6,-0.707 -15.769,-0.825 -6.63,-0.233 -13.824,-0.362 -21.351,-0.362 -4.263,0 -8.418,0.042 -12.428,0.12 -8.045,0.064 -16.133,0.322 -24.135,1.027 -14.006,0.996 -23.026,2.55 -23.026,4.297 0,2.891 24.623,5.152 55.778,5.329 1.392,1.55 -2.443,6.281 -3.964,6.419 -2.41,0.219 -7.885,-0.133 -10.689,-0.188 -12.614,-0.251 -31.279,-1.066 -40.132,-2.694 -6.646,-1.223 -13.806,-2.006 -13.893,-9.688 -0.04,-3.513 0.837,-9.417 1.418,-13.014 2.754,-17.052 10.703,-34.592 22.323,-47.322 -8.26,-0.197 -16.912,-1.358 -24.985,-3.175 -7.503,-1.689 -22.189,-4.926 -11.432,-14.405 21.738,-19.157 82.084,-19.65 109.874,-17.562 17.724,1.332 40.714,4.978 55.643,15.065 14.741,9.96 4.556,14.158 -7.155,16.902 -8.298,1.944 -16.919,2.83 -25.406,3.381 l 4.008,6.759 c 23.926,2.843 52.045,12.092 46.59,35.375"
         style="fill:#231f20;fill-opacity:1;fill-rule:nonzero;stroke:none"
         transform="matrix(1.3333333,0,0,-1.3333333,469.4788,282.72333)"
         clip-path="url(#clipPath64)" />
      <path
         id="path65"
         d="m 0,0 -8.606,7.219 0.096,0.622 c 0.717,0.43 4.303,0.908 5.259,0.956 L 1.386,0.908 Z"
         style="fill:#231f20;fill-opacity:1;fill-rule:nonzero;stroke:none"
         transform="matrix(1.3333333,0,0,-1.3333333,312.0792,347.10933)"
         clip-path="url(#clipPath66)" />
    </g>
  </g>
</svg>
